<?xml version="1.0" standalone="no"?>
<!DOCTYPE svg PUBLIC "-//W3C//DTD SVG 20010904//EN"
 "http://www.w3.org/TR/2001/REC-SVG-20010904/DTD/svg10.dtd">
<svg version="1.0" xmlns="http://www.w3.org/2000/svg"
 width="700.000000pt" height="700.000000pt" viewBox="0 0 700.000000 700.000000"
 preserveAspectRatio="xMidYMid meet">
<metadata>
Created by potrace 1.14, written by Peter Selinger 2001-2017
</metadata>
<g transform="translate(0.000000,700.000000) scale(0.100000,-0.100000)"
fill="#000000" stroke="none">
<path d="M3150 6989 c-524 -44 -1028 -206 -1477 -473 -781 -464 -1341 -1216
-1568 -2104 -68 -264 -93 -464 -102 -787 -13 -522 60 -958 234 -1400 415
-1050 1308 -1825 2403 -2084 461 -109 970 -120 1430 -30 957 186 1794 769
2288 1595 280 469 439 972 483 1529 13 164 7 570 -11 715 -40 328 -125 657
-244 945 -103 247 -295 575 -463 790 -314 402 -717 728 -1178 955 -419 207
-793 310 -1260 350 -137 11 -396 11 -535 -1z m1620 -2858 c0 -1371 -2 -1485
-36 -1648 -80 -391 -322 -687 -680 -830 -195 -79 -391 -108 -674 -100 -266 7
-439 40 -621 116 -329 137 -534 408 -645 850 -19 74 -33 135 -32 136 9 8 790
116 803 111 8 -3 15 -14 15 -24 0 -44 44 -184 85 -267 77 -160 189 -250 352
-281 93 -18 150 -18 234 0 229 49 352 219 379 524 7 74 10 463 8 1052 l-3 935
-762 3 -763 2 0 395 0 395 1170 0 1170 0 0 -1369z"/>
</g>
</svg>
